<svg xmlns="http://www.w3.org/2000/svg" viewBox="0 0 327.43 306.18"><defs><style>.cls-1,.cls-13{fill:#f7c800;}.cls-2{fill:#e5b900;}.cls-3{fill:none;}.cls-13,.cls-3{stroke:#0c0c0c;stroke-linecap:round;stroke-linejoin:round;stroke-width:5px;}.cls-4{fill:#2b2b2b;}.cls-5{fill:#141414;}.cls-6{fill:#faf8f1;}.cls-7{fill:#fff;}.cls-8{fill:#fd9795;}.cls-9{fill:#de6b5e;}.cls-10{fill:#e5e5e5;opacity:0.49;}.cls-11{fill:#dfdfdf;}.cls-12{fill:#0c0c0c;}</style></defs><title>toto_sit_2</title><g id="Layer_2" data-name="Layer 2"><g id="Layer_2-2" data-name="Layer 2"><path class="cls-1" d="M155.83,190.51s-35.44,7.34-53.17,16.41-38,18.53-47.52,21.75-24.95,2.51-32.32.63S5.7,219.14,3.75,219.55-.4,248.76,18.6,260.86s29,13.82,51,12.4,33.33-2,38.38,1.67,7.9,16,30.37,20.67,28.86,6.77,51.88,4,32.53-7.43,36.59-13.17,6.78-2.61,20.79-6.4,17.24-5.85,30.47-5.44,27.79-9.83,39.72-19.31,6.47-27.3,5.94-31.07-4.89-8.84-4.89-8.84-16.16,10.53-36.16,9.66-43-9.09-57.3-16.58S188,193.4,182,192,166.5,190.14,155.83,190.51Z"/><path class="cls-2" d="M75.67,223a52.38,52.38,0,0,1-15.28,13.6c-9.87,5.8-35.88,8.6-35.88,8.6s34.07,14.78,52,10.88,41.6-35.51,41.6-35.51-5.72,48.41,2.11,56.17,32.67,19.1,43,20.83,42.37-2,47-4.87S223.38,272,223.3,264s-5.8-31.4-5.8-31.4,14.25,22.3,27.37,26.46,62-8.16,62-8.16-24.75-2.45-47.06-5.71c-8.69-1.27-44.52-25.1-41.92-25.49s12.07,6.48,34.32,7.65,34.61-1.5,34.61-1.5-21.3-4.87-48-25.28c-9.51-7.28-48.94-5.93-56.93-8.52s-37.16.48-43,2.17-32.68,11.89-42.53,17S75.67,223,75.67,223Z"/><path class="cls-1" d="M63.64,225.42c1,0,11.64-.11,28.94-5.9s34.06-14.9,42.56-18.15,6.92-4.48,14.05-5.2,10.7-1.3,10.7-1.3l-4.06-4.36s-40-3.23-54.06,2.44S63.64,225.42,63.64,225.42Z"/><path class="cls-3" d="M155.83,190.51s-42.86-3.64-60.59,5.43-30.63,29.51-40.1,32.73-24.95,2.51-32.32.63S5.7,219.14,3.75,219.55-.4,248.76,18.6,260.86s29,13.82,51,12.4,33.33-2,38.38,1.67,7.9,16,30.37,20.67,28.86,6.77,51.88,4,32.53-7.43,36.59-13.17,4.33-3.43,18.34-7.21,22.83-1.27,35.64-4.63c16.59-4.35,24-9.56,35.91-19s7.56-27.57,7-31.34-4.89-8.84-4.89-8.84-16.2,11.24-36.16,9.66c-20.9-1.65-31.84-20.61-45.69-27.7-14.37-7.36-48.94-3.9-55-5.26S166.5,190.14,155.83,190.51Z"/><path class="cls-4" d="M83.15,228.79c-1.09-.27-13.33-6.53-18.5-13.06s-15.23-23.39-15.23-23.39-8.23,24.28-7.41,30.8S60.37,254,60.37,254l10.81,4.29,15.51-20.47Z"/><polygon class="cls-5" points="187.77 296.26 138.71 296.97 139.19 274.49 187.07 274.49 187.77 296.26"/><path class="cls-4" d="M97.57,205.67c1.09.54,64.75,11.15,66.38,11.15s48.15-6,49-6.26,21-6.53,21-6.53l-3,59.58-26.11,29.11-24.49.82.55-18-32.1,1.36-4.9,15.24-29.11-3.27L88.87,231.24Z"/><path class="cls-5" d="M100.29,205.67s-6,11.15-3.53,23.12,24.21,59,24.21,59l-10.07,5.44s-23.67-49-25.84-60.93-2.72-18.23.27-22S93.22,201,93.22,201Z"/><path class="cls-5" d="M229,205.94a60.21,60.21,0,0,1,1.63,26.66c-2.45,14.69-24.21,55.5-24.21,55.5l11.15,4.62s23.94-42.71,26.39-55.23-.54-28.29-2.45-31-6.8-5.71-6.8-5.71Z"/><path class="cls-6" d="M104.85,208.66c-.41.61-4.49,5.3,4.28,16.52s30.4,34.08,34.08,38,7.14,14.07,7.14,14.07,1,4.49,13.26,4.29S181,273.13,181,273.13s.41-8.36,3.88-10.81,21.42-19,28.36-29.18,9.39-13.87,9.79-17.95-1.22-9.59-1.22-9.59Z"/><path class="cls-1" d="M94.24,187.44l.41,12.85S117.91,217,153,217.43s81-15.71,81-15.71l-.41-12s-26.32,12.24-73.24,9S94.24,187.44,94.24,187.44Z"/><path class="cls-2" d="M93.83,192.13s10.2,7.35,28,9,27.34,2,27.34,2-1.63.82-1.42,3.88,3.06,7.75,3.06,7.75l25.91.41s2.63-4.52,2.45-7.55c-.21-3.47-.21-2.65-.21-2.65s9-.82,25.51-3.07a142.64,142.64,0,0,0,29.17-7.14v-5.1s-37.13,10.82-68.14,9.59-71.21-11.83-71.21-11.83Z"/><path class="cls-7" d="M56.76,130.85s3.81,33.46,22.86,44.62,48.42,25,94.4,22.85,76.17-16,83-24.21,18.23-43.53,17.41-43.53-86.24-48.7-88.14-49S56.76,130.85,56.76,130.85Z"/><path class="cls-4" d="M57.85,135.48c.27.81,4.9,12.24,22.31,10.34s25.3-9.8,35.37-19,21.76-28.83,47.06-29.92,36.18,16.86,47.61,26.93,17.14,23.12,37,21.22,29.65-13.06,29.65-13.06-.27-41.08-20.68-67.19S226,35.91,226,35.91L258.89,4.08,237.16,7.79,212.65,25.3S180.82,14.14,162.86,15s-45.16,11.7-45.16,11.7S105.19,13.6,98.12,9.79,71.73,4.62,71.73,4.62,82.88,17.68,88.59,21.49s13.88,16.87,13.88,16.87L74.72,63.93,56.49,106.1Z"/><path class="cls-8" d="M60.84,83.24s-3.53-29.65-4.08-41.62S62.21,8.43,68.73,9,90.5,27.48,90.5,27.48Z"/><path class="cls-8" d="M229.24,34S256.17,3.26,263.52,7.89s12.79,45.7,10.61,53.32S268.42,83,268.42,83s-14.69-25.84-22.58-32.64S229.24,34,229.24,34Z"/><path class="cls-9" d="M78.26,13.6s-6.53,4.63-9.53,24.21-.54,32.92-.54,32.92S75,58.22,84.79,50.87s19-15.78,19-15.78Z"/><path class="cls-9" d="M252.09,13.87s5.17,9.8,7.62,25.85A109.05,109.05,0,0,1,260,69.64s-10.61-14.14-18.22-21a180.51,180.51,0,0,1-13.61-13.6S248.28,15.51,252.09,13.87Z"/><path class="cls-10" d="M69.55,6c1.36.55,18.23,5.72,25.84,10.61s19.86,18.5,19.86,18.5,18.5-12.51,47.61-11.7S210.2,34.55,210.2,34.55s11.24-8.07,19.31-13.06C248,10.06,259.44,6.26,259.44,6.26s-4.9-5.17-16.32-.82-31.83,20.4-31.83,20.4S185.17,13.6,166.13,14.42,117.7,26.66,117.7,26.66,100.29,7.62,90.23,4.9,69.55,6,69.55,6Z"/><path class="cls-11" d="M62.75,147.45s17.41,41.62,103.92,38.63,107.19-49.51,107.19-49.51-6.26,56.31-83,60.93C190.88,197.5,81.52,213.55,62.75,147.45Z"/><path class="cls-7" d="M113.21,293.54s1.84-5.72,14.69-5.72,17.76,3.88,17.76,3.88,1.63,8-4.09,9.79-18.15,2-22.44,0S113.21,293.54,113.21,293.54Z"/><path class="cls-7" d="M181.77,292.11c.82-.21,8.16-5.51,18.77-5.1s15.1,5.71,15.1,5.71-9.79,9.39-16.94,9.79-13-1.83-14.07-2.65S181.77,292.11,181.77,292.11Z"/><path class="cls-10" d="M48.33,202.33s-2.24,19,8.16,30.2S72.2,246.61,72.2,246.61l-3.26,11.22s-14.08-7.75-18.36-15.71-10.41-23.26-8.17-28.77A73,73,0,0,1,48.33,202.33Z"/><path class="cls-5" d="M84.51,238.85c-.81,0-12.51,6.53-13.33,13.88s2.45,34.82,7.89,39.17,13.33,5.72,19.86,5.44,12.79-1.08,12.79-1.08Z"/><path class="cls-5" d="M245.56,239.13s10.89,4.89,13.61,13.33-3.81,31.55-7.35,36.18-6.53,6.8-11.7,7.34-23.66-.27-23.66-.27Z"/><path class="cls-12" d="M92.61,98.68S96.69,85.62,108.32,85s16.12,11.84,16.32,14.9-.2,8.16-8,10.61c-6.75,2.13-14.08,2.65-18.56,1S91.79,106,92.61,98.68Z"/><path class="cls-3" d="M61,90.32s-4.9-27.75-4.49-44.89,7.35-39.17,15.1-42S92.4,5,103.42,14.82s13.87,12.66,13.87,12.66,13.47-11.84,42-12.25,53,11,53,11S238.08,3.81,251.14,2.58s17.14,11.43,18.77,18,4.9,31,3.68,41.62-6.13,23.67-6.13,23.67,12.25,26.93,8.17,48.15-18.37,46.11-48.16,57.13-69.78,9.79-110.58,1.63-52.64-33.05-57.95-45.29-3.26-41.22,2-55.91"/><path class="cls-3" d="M68.19,6.8c.82.27,12.51,7.07,23.12,17.14S102.2,38.36,102.2,38.36,89.68,44.89,78,59.58A91.51,91.51,0,0,0,62.21,90.05"/><path class="cls-3" d="M262.43,6.26a49,49,0,0,0-21.22,13.6c-9.79,10.61-14.14,16.32-14.14,16.32s14.69,10.34,25.84,24.76,16,26.11,16,26.11"/><path class="cls-3" d="M93.22,186.35l-.55,13.87s22.86,18,71.82,16.06,70.19-15.51,70.19-15.51l-.81-10.34"/><path class="cls-13" d="M169.86,214.26s6.81-1.25,9.71,9.38,3.74,20.45,6,23.22,6.24,7.37,6.24,7.37-15.29-5.27-20.69-14.36S157.19,220.29,169.86,214.26Z"/><path class="cls-13" d="M166.88,216.71a15.49,15.49,0,0,1,3.94,16.68c-4.46,13.24-10.43,14.48-11.65,17.82a30.18,30.18,0,0,0-1.71,10.11s-8.17-14-6.34-24.38S153.34,213,166.88,216.71Z"/><circle class="cls-13" cx="163.2" cy="209.26" r="9.58"/><path class="cls-3" d="M92.67,200.22s-12.24,10.07-8.43,29.66,23.4,66.65,31.83,70.19c11.27,4.72,23.94,5.16,28.57-.82s2.72-45.43,2.72-45.43"/><path class="cls-3" d="M180,254.63s.82,36.46,1.36,40,3.81,9,15.24,8.71,19.31-4.9,25-14.15,22.31-44.61,22.86-58.21-.82-24.76-9.8-30.2"/><path class="cls-3" d="M85.33,237.49s-10.61,4.36-13.88,13.61,4.36,45.43,19,46.24,19.86-.81,19.86-.81"/><path class="cls-3" d="M243.93,237.77s12.24,5.17,14.42,15.5-4.62,40.81-16.05,42.44-26.12,1.36-26.12,1.36"/><path class="cls-3" d="M69.82,260.62S50.24,250.83,44,232.33s6.8-42.72,6.8-42.72,6.65,19.73,15.51,27.48c10.88,9.52,17.13,11.43,17.13,11.43"/><path class="cls-3" d="M132.67,128.4s5.71,15.65,17,14.83S163,134.12,163,134.12s6.39,10.61,16.46,9.25,16.46-15.51,16.46-15.51"/><path class="cls-12" d="M163.13,133.17c-8.84-.82-17.41-7.62-16.86-16.87s13.19-10.61,20.67-10.34,15.1,4.35,15.92,10.47S172,134,163.13,133.17Z"/><ellipse class="cls-4" cx="163.92" cy="114.6" rx="12.14" ry="5.3"/><circle class="cls-7" cx="110.87" cy="95.93" r="4.79"/><path class="cls-12" d="M235.69,99.3S231.61,86.24,220,85.62s-16.12,11.84-16.33,14.9.21,8.16,8,10.61c6.75,2.13,14.08,2.65,18.57,1S236.5,106.64,235.69,99.3Z"/><circle class="cls-7" cx="217.43" cy="96.54" r="4.79"/><line class="cls-3" x1="145.86" y1="297.82" x2="181.09" y2="297.82"/></g></g></svg>