<svg xmlns="http://www.w3.org/2000/svg" viewBox="0 0 327.43 300.9"><defs><style>.cls-1,.cls-14{fill:#f8b500;}.cls-2{fill:#e8a600;}.cls-3{fill:none;}.cls-14,.cls-15,.cls-3{stroke:#0c0c0c;stroke-linecap:round;stroke-linejoin:round;stroke-width:5px;}.cls-4{fill:#141414;}.cls-5{fill:#faf8f1;}.cls-6{fill:#e5b900;}.cls-15,.cls-7{fill:#fff;}.cls-8{fill:#2b2b2b;}.cls-9{fill:#fd9795;}.cls-10{fill:#de6b5e;}.cls-11,.cls-18{fill:#e5e5e5;}.cls-11{opacity:0.49;}.cls-12{fill:#dfdfdf;}.cls-13{fill:#0c0c0c;}.cls-16{fill:#fc3c3c;}.cls-17{fill:#ed3535;}</style></defs><title>toto_book_cape</title><g id="Layer_2" data-name="Layer 2"><g id="Layer_2-2" data-name="Layer 2"><path class="cls-1" d="M155.83,178.28s-35.44,7.34-53.17,16.41-38,18.52-47.52,21.75-24.95,2.5-32.32.63S5.7,206.91,3.75,207.32-.4,236.53,18.6,248.62s29,13.82,51,12.4,33.33-2,38.38,1.67,7.9,16,30.37,20.67,28.86,6.77,51.88,4,32.53-7.43,36.59-13.17,6.78-2.61,20.79-6.39,17.24-5.86,30.47-5.44,27.79-9.83,39.72-19.32,6.47-27.3,5.94-31.07-4.89-8.84-4.89-8.84-16.16,10.53-36.16,9.67-43-9.1-57.3-16.59S188,181.17,182,179.8,166.5,177.91,155.83,178.28Z"/><path class="cls-2" d="M75.67,210.74a52.49,52.49,0,0,1-15.28,13.61c-9.87,5.79-35.88,8.59-35.88,8.59s34.07,14.79,52,10.89,41.6-35.51,41.6-35.51-5.72,48.41,2.11,56.16,32.67,19.1,43,20.83,42.37-2,47-4.86,13.25-20.71,13.17-28.7-5.8-31.4-5.8-31.4,14.25,22.3,27.37,26.47,62-8.16,62-8.16-24.75-2.45-47.06-5.72c-8.69-1.27-44.52-25.1-41.92-25.49s12.07,6.48,34.32,7.65,34.61-1.5,34.61-1.5-21.3-4.87-48-25.27c-9.51-7.28-48.94-5.93-56.93-8.53s-37.16.48-43,2.17-32.68,11.89-42.53,17S75.67,210.74,75.67,210.74Z"/><path class="cls-3" d="M155.83,178.28S113,174.64,95.24,183.7s-30.63,29.51-40.1,32.74-24.95,2.5-32.32.63S5.7,206.91,3.75,207.32-.4,236.53,18.6,248.62s29,13.82,51,12.4,33.33-2,38.38,1.67,7.9,16,30.37,20.67,28.86,6.77,51.88,4,32.53-7.43,36.59-13.17,4.33-3.42,18.34-7.21,22.83-1.27,35.64-4.62c16.59-4.36,24-9.56,35.91-19s7.56-27.57,7-31.34-4.89-8.84-4.89-8.84-16.2,11.25-36.16,9.67c-20.9-1.66-31.84-20.62-45.69-27.71-14.37-7.35-48.94-3.89-55-5.26S166.5,177.91,155.83,178.28Z"/><polygon class="cls-4" points="227.18 294.15 163.1 291.34 107.3 298.85 103.69 271.22 226.49 272.38 227.18 294.15"/><path class="cls-2" d="M64,225.42c1,0,11.63-.11,28.93-5.9s34.06-14.9,42.56-18.15,6.93-4.48,14.06-5.2,10.7-1.3,10.7-1.3l-4.07-4.36s-40-3.23-54.06,2.44S64,225.42,64,225.42Z"/><path class="cls-4" d="M100.64,205.67s-6,11.15-3.53,23.12,24.21,59,24.21,59l-10.07,5.44s-23.66-49-25.84-60.93-2.72-18.23.27-22S93.57,201,93.57,201Z"/><path class="cls-4" d="M229.32,205.94A60.21,60.21,0,0,1,231,232.6c-2.44,14.69-24.21,55.5-24.21,55.5l11.16,4.62s23.94-42.71,26.39-55.23-.55-28.29-2.45-31-6.8-5.71-6.8-5.71Z"/><path class="cls-5" d="M105.2,208.66c-.41.61-4.49,5.3,4.29,16.52s30.4,34.08,34.07,38,7.14,14.07,7.14,14.07,1,4.49,13.26,4.29,17.35-8.37,17.35-8.37.4-8.36,3.87-10.81,21.43-19,28.36-29.18,9.39-13.87,9.8-17.95-1.23-9.59-1.23-9.59Z"/><path class="cls-1" d="M94.59,187.44,95,200.29s23.26,16.73,58.35,17.14,81-15.71,81-15.71l-.41-12s-26.32,12.24-73.25,9S94.59,187.44,94.59,187.44Z"/><path class="cls-6" d="M94.18,192.13s10.21,7.35,28,9,27.34,2,27.34,2-1.64.82-1.43,3.88,3.06,7.75,3.06,7.75l25.91.41s2.63-4.52,2.45-7.55c-.2-3.47-.2-2.65-.2-2.65s9-.82,25.5-3.07A142.63,142.63,0,0,0,234,194.78v-5.1s-37.14,10.82-68.15,9.59-71.21-11.83-71.21-11.83Z"/><path class="cls-7" d="M57.12,130.85S60.93,164.31,80,175.47s48.42,25,94.4,22.85,76.17-16,83-24.21,18.23-43.53,17.41-43.53-86.23-48.7-88.14-49S57.12,130.85,57.12,130.85Z"/><path class="cls-8" d="M58.21,135.48c.27.81,4.89,12.24,22.3,10.34s25.3-9.8,35.37-19,21.76-28.83,47.06-29.92,36.19,16.86,47.61,26.93,17.14,23.12,37,21.22,29.65-13.06,29.65-13.06-.27-41.08-20.67-67.19-30.2-28.84-30.2-28.84L259.25,4.08,237.52,7.79,213,25.3S181.17,14.14,163.22,15s-45.16,11.7-45.16,11.7S105.54,13.6,98.47,9.79,72.08,4.62,72.08,4.62,83.23,17.68,89,21.49s13.87,16.87,13.87,16.87L75.07,63.93,56.85,106.1Z"/><path class="cls-9" d="M61.2,83.24s-3.54-29.65-4.08-41.62S62.56,8.43,69.09,9s21.76,18.5,21.76,18.5Z"/><path class="cls-9" d="M229.59,34S256.53,3.26,263.87,7.89s12.79,45.7,10.61,53.32S268.77,83,268.77,83s-14.69-25.84-22.58-32.64S229.59,34,229.59,34Z"/><path class="cls-10" d="M78.61,13.6s-6.53,4.63-9.52,24.21-.55,32.92-.55,32.92,6.8-12.51,16.6-19.86,19-15.78,19-15.78Z"/><path class="cls-10" d="M252.45,13.87s5.17,9.8,7.61,25.85a109.3,109.3,0,0,1,.28,29.92s-10.61-14.14-18.23-21a179.19,179.19,0,0,1-13.6-13.6S248.64,15.51,252.45,13.87Z"/><path class="cls-11" d="M69.9,6c1.36.55,18.23,5.72,25.85,10.61s19.86,18.5,19.86,18.5,18.5-12.51,47.61-11.7,47.33,11.16,47.33,11.16,11.24-8.07,19.32-13.06c18.5-11.43,29.92-15.23,29.92-15.23s-4.9-5.17-16.32-.82-31.83,20.4-31.83,20.4S185.52,13.6,166.48,14.42s-48.42,12.24-48.42,12.24S100.64,7.62,90.58,4.9,69.9,6,69.9,6Z"/><path class="cls-12" d="M63.1,147.45S80.51,189.07,167,186.08s107.19-49.51,107.19-49.51-6.26,56.31-83,60.93C191.24,197.5,81.87,213.55,63.1,147.45Z"/><path class="cls-4" d="M91.69,235.69c-.82,0-19.34,9.69-20.15,17S74,287.55,79.43,291.9s13.33,5.72,19.85,5.44,12.79-1.08,12.79-1.08Z"/><path class="cls-4" d="M245.92,239.13s10.88,4.89,13.6,13.33-3.81,31.55-7.35,36.18-6.52,6.8-11.69,7.34-23.67-.27-23.67-.27Z"/><path class="cls-13" d="M93,98.68S97,85.62,108.67,85,124.79,96.85,125,99.91s-.2,8.16-7.95,10.61c-6.76,2.13-14.08,2.65-18.57,1S92.14,106,93,98.68Z"/><path class="cls-3" d="M61.33,90.32s-4.89-27.75-4.48-44.89,7.34-39.17,15.09-42S92.76,5,103.77,14.82s13.88,12.66,13.88,12.66,13.46-11.84,42-12.25,53,11,53,11S238.44,3.81,251.49,2.58s17.14,11.43,18.78,18,4.89,31,3.67,41.62-6.12,23.67-6.12,23.67S280.06,112.76,276,134s-18.36,46.11-48.15,57.13-69.78,9.79-110.59,1.63S64.6,159.69,59.29,147.45s-3.26-41.22,2-55.91"/><path class="cls-3" d="M68.54,6.8c.82.27,12.52,7.07,23.13,17.14s10.88,14.42,10.88,14.42S90,44.89,78.34,59.58A91.43,91.43,0,0,0,62.56,90.05"/><path class="cls-3" d="M262.78,6.26a49,49,0,0,0-21.22,13.6c-9.79,10.61-14.14,16.32-14.14,16.32s14.69,10.34,25.84,24.76,15.61,27.22,15.61,27.22"/><path class="cls-3" d="M93.57,186.35,93,200.22s22.85,18,71.82,16.06S235,200.77,235,200.77l-.82-10.34"/><path class="cls-14" d="M170.21,214.26s6.81-1.25,9.71,9.38,3.74,20.45,6,23.22,6.24,7.37,6.24,7.37-15.29-5.27-20.69-14.36S157.54,220.29,170.21,214.26Z"/><path class="cls-14" d="M167.23,216.71a15.49,15.49,0,0,1,3.94,16.68c-4.46,13.24-10.43,14.48-11.65,17.82a30.18,30.18,0,0,0-1.71,10.11s-8.16-14-6.34-24.38S153.69,213,167.23,216.71Z"/><circle class="cls-14" cx="163.55" cy="209.26" r="9.58"/><path class="cls-3" d="M244.29,237.77s12.24,5.17,14.41,15.5-4.62,40.81-16,42.44a153.29,153.29,0,0,1-19.55,1.63s-16.11-4.94-58.7-4.71c-32.74.19-54.47,5.77-54.47,5.77l-19.08-1.06c-14.69-.81-22.31-37-19-46.24s13.87-13.61,13.87-13.61"/><path class="cls-3" d="M133,128.4s5.71,15.65,17,14.83,13.33-9.11,13.33-9.11,6.39,10.61,16.46,9.25,16.46-15.51,16.46-15.51"/><path class="cls-13" d="M163.49,133.17c-8.84-.82-17.41-7.62-16.87-16.87S159.81,105.69,167.3,106s15.09,4.35,15.91,10.47S172.33,134,163.49,133.17Z"/><ellipse class="cls-8" cx="164.27" cy="114.6" rx="12.14" ry="5.3"/><circle class="cls-7" cx="109.1" cy="107.22" r="4.79"/><path class="cls-13" d="M236,99.3S232,86.24,220.33,85.62,204.21,97.46,204,100.52s.2,8.16,8,10.61c6.76,2.13,14.08,2.65,18.57,1S236.86,106.64,236,99.3Z"/><circle class="cls-7" cx="221.34" cy="107.93" r="4.79"/><path class="cls-3" d="M98.4,261.34S113,270.63,113,296.52"/><path class="cls-3" d="M235.34,260.75s-14.59,9.3-14.59,35.18"/><path class="cls-15" d="M72.51,162.4s-1.41-4.24,5.65-10.82,18.18-8.18,23.53-6.24,56.95,19.73,56.95,19.73Z"/><path class="cls-15" d="M256.47,162.22s1.41-4.23-5.65-10.82-18.17-8.18-23.53-6.24-56.95,19.73-56.95,19.73Z"/><polygon class="cls-16" points="159.81 285.83 65.46 279.83 65.46 161.77 159.81 164.77 159.81 285.83"/><polygon class="cls-16" points="175.34 285.83 269.69 279.83 269.69 161.77 175.34 164.77 175.34 285.83"/><rect class="cls-17" x="158.64" y="165.07" width="17.86" height="120.47"/><path class="cls-3" d="M65.46,161.77l93.18,3.3H176.5l93.19-3.3V279.83l-93.19,5.71H158.64l-93.18-5.71S65,161.77,65.46,161.77Z"/><ellipse class="cls-15" cx="62.4" cy="215.4" rx="21.41" ry="16.24"/><ellipse class="cls-15" cx="272.75" cy="218.69" rx="21.41" ry="16.24"/><path class="cls-18" d="M201.4,159.63c.88,0,32.47-11.47,32.47-11.47l3,2.12Z"/><path class="cls-18" d="M207,160.16c.53,0,35.65-9.35,35.65-9.35l3.18,2.3Z"/><polygon class="cls-18" points="129.93 159.63 95.34 147.81 90.57 149.58 129.93 159.63"/><path class="cls-18" d="M126.22,159.81c-.53,0-39.53-9.18-39.53-9.18l-2.12,2Z"/><path class="cls-18" d="M122.87,160.16l-.7-.07c-5.35-.59-39.36-4.69-39.36-4.69l-1.24,1.94"/></g></g></svg>