<svg xmlns="http://www.w3.org/2000/svg" viewBox="0 0 327.43 306.18"><defs><style>.cls-1,.cls-14{fill:#f8b500;}.cls-2{fill:#e8a600;}.cls-16,.cls-23,.cls-3{fill:none;}.cls-14,.cls-16,.cls-23,.cls-3{stroke:#0c0c0c;stroke-linecap:round;stroke-linejoin:round;}.cls-14,.cls-3{stroke-width:5px;}.cls-4{fill:#2b2b2b;}.cls-5{fill:#141414;}.cls-6{fill:#faf8f1;}.cls-7{fill:#e5b900;}.cls-8{fill:#fff;}.cls-9{fill:#fd9795;}.cls-10{fill:#de6b5e;}.cls-11{fill:#e5e5e5;opacity:0.49;}.cls-12{fill:#dfdfdf;}.cls-13{fill:#0c0c0c;}.cls-15{fill:#ed3535;}.cls-16{stroke-width:3px;}.cls-17{fill:#0081c1;}.cls-18{fill:#f8ca8c;}.cls-19{fill:#dcb37d;}.cls-20{fill:#d89077;}.cls-21{fill:#b03305;}.cls-22{fill:#c13308;}.cls-23{stroke-width:4px;}</style></defs><title>toto_about_1</title><g id="Layer_2" data-name="Layer 2"><g id="Layer_2-2" data-name="Layer 2"><path class="cls-1" d="M155.83,190.51s-35.44,7.34-53.17,16.41-38,18.53-47.52,21.75-24.95,2.51-32.32.63S5.7,219.14,3.75,219.55-.4,248.76,18.6,260.86s29,13.82,51,12.4,33.33-2,38.38,1.67,7.9,16,30.37,20.67,28.86,6.77,51.88,4,32.53-7.43,36.59-13.17,6.78-2.61,20.79-6.4,17.24-5.85,30.47-5.44,27.79-9.83,39.72-19.31,6.47-27.3,5.94-31.07-4.89-8.84-4.89-8.84-16.16,10.53-36.16,9.66-43-9.09-57.3-16.58S188,193.4,182,192,166.5,190.14,155.83,190.51Z"/><path class="cls-2" d="M75.67,223a52.38,52.38,0,0,1-15.28,13.6c-9.87,5.8-35.88,8.6-35.88,8.6s34.07,14.78,52,10.88,41.6-35.51,41.6-35.51-5.72,48.41,2.11,56.17,32.67,19.1,43,20.83,42.37-2,47-4.87S223.38,272,223.3,264s-5.8-31.4-5.8-31.4,14.25,22.3,27.37,26.46,62-8.16,62-8.16-24.75-2.45-47.06-5.71c-8.69-1.27-44.52-25.1-41.92-25.49s12.07,6.48,34.32,7.65,34.61-1.5,34.61-1.5-21.3-4.87-48-25.28c-9.51-7.28-48.94-5.93-56.93-8.52s-37.16.48-43,2.17-32.68,11.89-42.53,17S75.67,223,75.67,223Z"/><path class="cls-2" d="M63.64,225.42c1,0,11.64-.11,28.94-5.9s34.06-14.9,42.56-18.15,6.92-4.48,14.05-5.2,10.7-1.3,10.7-1.3l-4.06-4.36s-40-3.23-54.06,2.44S63.64,225.42,63.64,225.42Z"/><path class="cls-3" d="M155.83,190.51s-42.86-3.64-60.59,5.43-30.63,29.51-40.1,32.73-24.95,2.51-32.32.63S5.7,219.14,3.75,219.55-.4,248.76,18.6,260.86s29,13.82,51,12.4,33.33-2,38.38,1.67,7.9,16,30.37,20.67,28.86,6.77,51.88,4,32.53-7.43,36.59-13.17,4.33-3.43,18.34-7.21,22.83-1.27,35.64-4.63c16.59-4.35,24-9.56,35.91-19s7.56-27.57,7-31.34-4.89-8.84-4.89-8.84-16.2,11.24-36.16,9.66c-20.9-1.65-31.84-20.61-45.69-27.7-14.37-7.36-48.94-3.9-55-5.26S166.5,190.14,155.83,190.51Z"/><path class="cls-4" d="M83.15,228.79c-1.09-.27-13.33-6.53-18.5-13.06s-15.23-23.39-15.23-23.39-8.23,24.28-7.41,30.8S60.37,254,60.37,254l10.81,4.29,15.51-20.47Z"/><polygon class="cls-5" points="187.77 296.26 138.71 296.97 139.19 274.49 187.07 274.49 187.77 296.26"/><path class="cls-4" d="M97.57,205.67c1.09.54,64.75,11.15,66.38,11.15s48.15-6,49-6.26,21-6.53,21-6.53l-3,59.58-26.11,29.11-24.49.82.55-18-32.1,1.36-4.9,15.24-29.11-3.27L88.87,231.24Z"/><path class="cls-5" d="M100.29,205.67s-6,11.15-3.53,23.12,24.21,59,24.21,59l-10.07,5.44s-23.67-49-25.84-60.93-2.72-18.23.27-22S93.22,201,93.22,201Z"/><path class="cls-5" d="M229,205.94a60.21,60.21,0,0,1,1.63,26.66c-2.45,14.69-24.21,55.5-24.21,55.5l11.15,4.62s23.94-42.71,26.39-55.23-.54-28.29-2.45-31-6.8-5.71-6.8-5.71Z"/><path class="cls-6" d="M104.85,208.66c-.41.61-4.49,5.3,4.28,16.52s30.4,34.08,34.08,38,7.14,14.07,7.14,14.07,1,4.49,13.26,4.29S181,273.13,181,273.13s.41-8.36,3.88-10.81,21.42-19,28.36-29.18,9.39-13.87,9.79-17.95-1.22-9.59-1.22-9.59Z"/><path class="cls-1" d="M94.24,187.44l.41,12.85S117.91,217,153,217.43s81-15.71,81-15.71l-.41-12s-26.32,12.24-73.24,9S94.24,187.44,94.24,187.44Z"/><path class="cls-7" d="M93.83,192.13s10.2,7.35,28,9,27.34,2,27.34,2-1.63.82-1.42,3.88,3.06,7.75,3.06,7.75l25.91.41s2.63-4.52,2.45-7.55c-.21-3.47-.21-2.65-.21-2.65s9-.82,25.51-3.07a142.64,142.64,0,0,0,29.17-7.14v-5.1s-37.13,10.82-68.14,9.59-71.21-11.83-71.21-11.83Z"/><path class="cls-8" d="M57.12,131S60.93,164.43,80,175.59s48.42,25,94.4,22.85,76.17-16.05,83-24.21,18.23-43.53,17.41-43.53-86.23-48.7-88.14-49S57.12,131,57.12,131Z"/><path class="cls-4" d="M57.85,135.48c.27.81,4.9,12.24,22.31,10.34s25.3-9.8,35.37-19,21.76-28.83,47.06-29.92,36.18,16.86,47.61,26.93,17.14,23.12,37,21.22,29.65-13.06,29.65-13.06-.27-41.08-20.68-67.19S226,35.91,226,35.91L258.89,4.08,237.16,7.79,212.65,25.3S180.82,14.14,162.86,15s-45.16,11.7-45.16,11.7S105.19,13.6,98.12,9.79,71.73,4.62,71.73,4.62,82.88,17.68,88.59,21.49s13.88,16.87,13.88,16.87L74.72,63.93,56.49,106.1Z"/><path class="cls-9" d="M60.84,83.24s-3.53-29.65-4.08-41.62S62.21,8.43,68.73,9,90.5,27.48,90.5,27.48Z"/><path class="cls-9" d="M229.24,34S256.17,3.26,263.52,7.89s12.79,45.7,10.61,53.32S268.42,83,268.42,83s-14.69-25.84-22.58-32.64S229.24,34,229.24,34Z"/><path class="cls-10" d="M78.26,13.6s-6.53,4.63-9.53,24.21-.54,32.92-.54,32.92S75,58.22,84.79,50.87s19-15.78,19-15.78Z"/><path class="cls-10" d="M252.09,13.87s5.17,9.8,7.62,25.85A109.05,109.05,0,0,1,260,69.64s-10.61-14.14-18.22-21a180.51,180.51,0,0,1-13.61-13.6S248.28,15.51,252.09,13.87Z"/><path class="cls-11" d="M69.55,6c1.36.55,18.23,5.72,25.84,10.61s19.86,18.5,19.86,18.5,18.5-12.51,47.61-11.7S210.2,34.55,210.2,34.55s11.24-8.07,19.31-13.06C248,10.06,259.44,6.26,259.44,6.26s-4.9-5.17-16.32-.82-31.83,20.4-31.83,20.4S185.17,13.6,166.13,14.42,117.7,26.66,117.7,26.66,100.29,7.62,90.23,4.9,69.55,6,69.55,6Z"/><path class="cls-12" d="M62.75,147.45s17.41,41.62,103.92,38.63,107.19-49.51,107.19-49.51-6.26,56.31-83,60.93C190.88,197.5,81.52,213.55,62.75,147.45Z"/><path class="cls-8" d="M113.21,293.54s1.84-5.72,14.69-5.72,17.76,3.88,17.76,3.88,1.63,8-4.09,9.79-18.15,2-22.44,0S113.21,293.54,113.21,293.54Z"/><path class="cls-8" d="M181.77,292.11c.82-.21,8.16-5.51,18.77-5.1s15.1,5.71,15.1,5.71-9.79,9.39-16.94,9.79-13-1.83-14.07-2.65S181.77,292.11,181.77,292.11Z"/><path class="cls-11" d="M48.33,202.33s-2.24,19,8.16,30.2S72.2,246.61,72.2,246.61l-3.26,11.22s-14.08-7.75-18.36-15.71-10.41-23.26-8.17-28.77A73,73,0,0,1,48.33,202.33Z"/><path class="cls-5" d="M84.51,238.85c-.81,0-12.51,6.53-13.33,13.88s2.45,34.82,7.89,39.17,13.33,5.72,19.86,5.44,12.79-1.08,12.79-1.08Z"/><path class="cls-5" d="M245.56,239.13s10.89,4.89,13.61,13.33-3.81,31.55-7.35,36.18-6.53,6.8-11.7,7.34-23.66-.27-23.66-.27Z"/><path class="cls-13" d="M92.61,98.68S96.69,85.62,108.32,85s16.12,11.84,16.32,14.9-.2,8.16-8,10.61c-6.75,2.13-14.08,2.65-18.56,1S91.79,106,92.61,98.68Z"/><path class="cls-3" d="M61,90.32s-4.9-27.75-4.49-44.89,7.35-39.17,15.1-42S92.4,5,103.42,14.82s13.87,12.66,13.87,12.66,13.47-11.84,42-12.25,53,11,53,11S238.08,3.81,251.14,2.58s17.14,11.43,18.77,18,4.9,31,3.68,41.62-6.13,23.67-6.13,23.67,12.25,26.93,8.17,48.15-18.37,46.11-48.16,57.13-69.78,9.79-110.58,1.63-52.64-33.05-57.95-45.29-3.26-41.22,2-55.91"/><path class="cls-3" d="M68.19,6.8c.82.27,12.51,7.07,23.12,17.14S102.2,38.36,102.2,38.36,89.68,44.89,78,59.58A91.51,91.51,0,0,0,62.21,90.05"/><path class="cls-3" d="M262.43,6.26a49,49,0,0,0-21.22,13.6c-9.79,10.61-14.14,16.32-14.14,16.32s14.69,10.34,25.84,24.76,16,26.11,16,26.11"/><path class="cls-3" d="M93.22,186.35l-.55,13.87s22.86,18,71.82,16.06,70.19-15.51,70.19-15.51l-.81-10.34"/><path class="cls-14" d="M169.86,214.26s6.81-1.25,9.71,9.38,3.74,20.45,6,23.22,6.24,7.37,6.24,7.37-15.29-5.27-20.69-14.36S157.19,220.29,169.86,214.26Z"/><path class="cls-14" d="M166.88,216.71a15.49,15.49,0,0,1,3.94,16.68c-4.46,13.24-10.43,14.48-11.65,17.82a30.18,30.18,0,0,0-1.71,10.11s-8.17-14-6.34-24.38S153.34,213,166.88,216.71Z"/><circle class="cls-14" cx="163.2" cy="209.26" r="9.58"/><path class="cls-3" d="M92.67,200.22s-12.24,10.07-8.43,29.66,23.4,66.65,31.83,70.19c11.27,4.72,23.94,5.16,28.57-.82s2.72-45.43,2.72-45.43"/><path class="cls-3" d="M180,254.63s.82,36.46,1.36,40,3.81,9,15.24,8.71,19.31-4.9,25-14.15,22.31-44.61,22.86-58.21-.82-24.76-9.8-30.2"/><path class="cls-3" d="M85.33,237.49s-10.61,4.36-13.88,13.61,4.36,45.43,19,46.24,19.86-.81,19.86-.81"/><path class="cls-3" d="M243.93,237.77s12.24,5.17,14.42,15.5-4.62,40.81-16.05,42.44-26.12,1.36-26.12,1.36"/><path class="cls-3" d="M69.82,260.62S50.24,250.83,44,232.33s6.8-42.72,6.8-42.72,6.65,19.73,15.51,27.48c10.88,9.52,17.13,11.43,17.13,11.43"/><path class="cls-13" d="M163.13,133.17c-8.84-.82-17.41-7.62-16.86-16.87s13.19-10.61,20.67-10.34,15.1,4.35,15.92,10.47S172,134,163.13,133.17Z"/><ellipse class="cls-4" cx="163.92" cy="114.6" rx="12.14" ry="5.3"/><circle class="cls-8" cx="110.87" cy="95.93" r="4.79"/><path class="cls-13" d="M235.69,99.3S231.61,86.24,220,85.62s-16.12,11.84-16.33,14.9.21,8.16,8,10.61c6.75,2.13,14.08,2.65,18.57,1S236.5,106.64,235.69,99.3Z"/><circle class="cls-8" cx="217.43" cy="96.54" r="4.79"/><line class="cls-3" x1="145.86" y1="297.82" x2="181.09" y2="297.82"/><path class="cls-13" d="M146.24,144.73s3.06,12.71,15.3,13.42,20.7-13.65,20.7-13.65l-11.06-2.59-7.76-5.18-8,6.36Z"/><rect class="cls-15" x="196.93" y="220.97" width="17.91" height="25.68"/><rect class="cls-8" x="199.29" y="220.97" width="2.5" height="25.68"/><rect class="cls-8" x="204.48" y="220.97" width="2.5" height="25.68"/><rect class="cls-8" x="209.62" y="220.97" width="2.5" height="25.68"/><rect class="cls-1" x="192.83" y="215.97" width="26.12" height="5"/><polyline class="cls-16" points="196.91 221.2 192.83 221.2 192.83 215.97 219.05 215.97 219.05 220.97 214.84 220.97 214.84 246.65 196.96 246.65 196.96 221.2"/><path class="cls-1" d="M223.17,264.15v.35a3.6,3.6,0,0,1-3.46,3.59v.4a3.12,3.12,0,0,1-5.34,2.21,3.08,3.08,0,0,1-.92-2.21v-.4h-4.32v4.3h.4a3.13,3.13,0,1,1,0,6.26h-.4v.22a3.61,3.61,0,0,1-3.59,3.59h-.35a3.61,3.61,0,0,1-3.6-3.59v-.22h-.49a3.13,3.13,0,0,1,0-6.26h.49v-4.3h-4.06v.4a3.12,3.12,0,0,1-5.34,2.21,3.08,3.08,0,0,1-.92-2.21v-.4h-.21a3.61,3.61,0,0,1-3.6-3.59v-.35a3.6,3.6,0,0,1,3.6-3.59h.21v-.5a3.14,3.14,0,0,1,3.13-3.13,3.14,3.14,0,0,1,3.13,3.13v.5h4.06v-4.09h-.49a3.14,3.14,0,0,1-3.13-3.13,3.14,3.14,0,0,1,3.13-3.13h.5a3.6,3.6,0,0,1,3.59-3.46h.35a3.61,3.61,0,0,1,3.59,3.46h.4a3.13,3.13,0,1,1,0,6.26h-.4v4.09h4.32v-.5a3.13,3.13,0,1,1,6.26,0v.5A3.6,3.6,0,0,1,223.17,264.15Z"/><path class="cls-16" d="M223,264.15v.35a3.61,3.61,0,0,1-3.46,3.59v.4a3.13,3.13,0,0,1-5.35,2.21,3.11,3.11,0,0,1-.91-2.21v-.4H209v4.3h.4a3.13,3.13,0,0,1,0,6.26H209v.22a3.61,3.61,0,0,1-3.6,3.59H205a3.61,3.61,0,0,1-3.59-3.59v-.22H201a3.12,3.12,0,0,1-2.21-5.34,3.08,3.08,0,0,1,2.21-.92h.49v-4.3h-4.06v.4A3.13,3.13,0,0,1,192,270.7a3.11,3.11,0,0,1-.91-2.21v-.4h-.22a3.61,3.61,0,0,1-3.59-3.59v-.35a3.6,3.6,0,0,1,3.59-3.59h.22v-.5a3.13,3.13,0,0,1,6.26,0v.5h4.06v-4.09H201a3.15,3.15,0,0,1-3.14-3.13,3.16,3.16,0,0,1,3.14-3.13h.49a3.61,3.61,0,0,1,3.59-3.46h.35a3.6,3.6,0,0,1,3.59,3.46h.41a3.13,3.13,0,0,1,0,6.26H209v4.09h4.32v-.5a3.13,3.13,0,0,1,6.26,0v.5A3.61,3.61,0,0,1,223,264.15Z"/><rect class="cls-17" x="193.06" y="261.78" width="23.86" height="5.07"/><path class="cls-1" d="M197.46,264.64l.4.11c0,.08,0,.15,0,.21a.93.93,0,0,1-.34.74,1.4,1.4,0,0,1-.9.28c-.95,0-1.42-.54-1.42-1.6a1.84,1.84,0,0,1,.41-1.23,1.39,1.39,0,0,1,1.08-.47.9.9,0,0,1,1,1l-.39.18v-.22c0-.47-.18-.7-.56-.7s-.6.5-.6,1.5.22,1.28.67,1.28a.57.57,0,0,0,.46-.22.83.83,0,0,0,.18-.55A2.39,2.39,0,0,0,197.46,264.64Z"/><path class="cls-1" d="M199.52,262.68c.93,0,1.39.55,1.39,1.65s-.47,1.65-1.42,1.65-1.41-.57-1.41-1.69S198.56,262.68,199.52,262.68Zm0,.25a.36.36,0,0,0-.35.29,6.83,6.83,0,0,0,0,2.21.35.35,0,0,0,.35.29.36.36,0,0,0,.36-.29,4.36,4.36,0,0,0,.09-1.1,4.46,4.46,0,0,0-.09-1.11A.37.37,0,0,0,199.49,262.93Z"/><path class="cls-1" d="M203.71,262.74v2.13c0,.74-.4,1.1-1.21,1.1s-1.21-.36-1.21-1.1v-2.13h.92v2.16a1,1,0,0,0,.12.58.54.54,0,0,0,.44.15c.42,0,.63-.25.63-.76v-2.13Z"/><path class="cls-1" d="M204.22,265.92v-3.18h1.37a1.45,1.45,0,0,1,.85.22.71.71,0,0,1,.32.6c0,.39-.23.64-.69.76a.91.91,0,0,1,.46.29,1.3,1.3,0,0,1,.14.6,1.44,1.44,0,0,0,.18.71h-1a1.29,1.29,0,0,1-.1-.55v-.43c0-.37-.15-.55-.44-.55h-.16v1.53Zm.92-1.79h.19c.35,0,.52-.19.52-.55s-.17-.55-.52-.55h-.19Z"/><path class="cls-1" d="M208.68,262.74l.89,3.18h-.93l-.19-.69h-1l-.2.69h-.36l.94-3.18Zm-1.1,2.17h.79L208,263.5Z"/><path class="cls-1" d="M211.07,264.2h1.31v1.72h-.29l-.1-.22a1.42,1.42,0,0,1-.82.28,1.44,1.44,0,0,1-1.1-.43,1.69,1.69,0,0,1-.39-1.19,1.71,1.71,0,0,1,.42-1.21,1.36,1.36,0,0,1,1.08-.47,1,1,0,0,1,1.07.9l-.43.2v-.25c0-.37-.2-.56-.52-.56a.48.48,0,0,0-.48.3,4.88,4.88,0,0,0,0,2.15.39.39,0,0,0,.39.27c.23,0,.35-.13.35-.38v-.79h-.46Z"/><path class="cls-1" d="M214.9,262.74v.32h-1.14v1h1v.32h-1v1.26h1.33v.32h-2.26v-3.18Z"/><path class="cls-18" d="M71.28,134.57c.38,0,41.78,5.9,63.24,7.58s37.22,2.33,65-2.71,64.92-13.89,67.59-14.52,6.73,1.53,8.5,6.74,1.88,21,1.37,23.76-1.28,3.81-2.16,4.19-3.31,1.14-3.31,1.14-.39,7.87-1.91,8-69.48-2.51-92.47-1.91-39.38,1.6-58.44,4-47.76,6-47.76,6-7.11-7-6.83-23.26S71.28,134.57,71.28,134.57Z"/><path class="cls-19" d="M263.32,143.08a90.75,90.75,0,0,0,.75,11,47.15,47.15,0,0,0,1.89,8.64l9.53-2.78L273.1,140.3Z"/><path class="cls-20" d="M270.3,142.83c-.05-.5-7,.25-7,.25s-.49-17.28,5.74-17.78,7.85,15.51,7.72,19.58.87,15-2,15.11S270.68,146.65,270.3,142.83Z"/><path class="cls-20" d="M265.58,162.26l5.34-.88s.62,7.62-1.54,7.75S265.58,162.26,265.58,162.26Z"/><path class="cls-21" d="M154.33,144.2s-2.42,11.05-5.48,16.76a67.15,67.15,0,0,1-5.47,8.81l12.47-.11,9.53-1.89s-2.69-1.71-2.56-6.53,2.18-11.94,3.58-14a14.5,14.5,0,0,1,3.56-3.43S158.78,144.59,154.33,144.2Z"/><ellipse class="cls-22" cx="158.2" cy="152.59" rx="7.62" ry="9.34" transform="translate(5.39 310.59) rotate(-89.92)"/><circle class="cls-21" cx="158.39" cy="152.21" r="3.43"/><path class="cls-23" d="M275.14,131.92c-1.76-5.21-5.83-7.38-8.49-6.74s-39.78,9.47-67.6,14.51-43.57,4.39-65,2.71-62.86-7.58-63.24-7.58c0,0-6.86,2.78-7.14,19s6.83,23.26,6.83,23.26,28.71-3.65,47.76-6c8.62-1.08,54-3.88,58.44-4,21.43-.57,81.91,1.68,91.27,1.89.68,0,1.09,0,1.19,0,.52,0,.91-1,1.2-2.19a27.54,27.54,0,0,0,.09-5.18l-.43.07,1-.3a3.73,3.73,0,0,0,0-.4s1.58-.49,2.66-.89l.65-.25a2.16,2.16,0,0,0,.55-.34,3.74,3.74,0,0,0,.93-1.37h0a11.51,11.51,0,0,0,.68-2.48C277,152.88,276.92,137.13,275.14,131.92Z"/><path class="cls-3" d="M132.67,128.4s5.71,15.65,17,14.83S163,134.12,163,134.12s6.39,10.61,16.46,9.25,16.46-15.51,16.46-15.51"/></g></g></svg>