<svg xmlns="http://www.w3.org/2000/svg" viewBox="0 0 608.83 260.91"><defs><style>.cls-1{isolation:isolate;}.cls-2{fill:#2b2b2b;}.cls-3{fill:#141414;}.cls-4{fill:#dfdbc4;}.cls-5{fill:#ccc;}.cls-6{fill:#e5e5e5;opacity:0.61;mix-blend-mode:screen;}.cls-14,.cls-7{fill:#f7c800;}.cls-8{fill:#fd9795;}.cls-9{fill:#de6b5e;}.cls-10{fill:#faf8f1;}.cls-11{fill:#282828;opacity:0.28;mix-blend-mode:multiply;}.cls-12{fill:none;}.cls-12,.cls-14{stroke:#0c0c0c;stroke-linecap:round;stroke-linejoin:round;stroke-width:5px;}.cls-13{fill:#c19c00;}.cls-15{fill:#e5b900;}</style></defs><title>Toto_sleep_1</title><g class="cls-1"><g id="Layer_2" data-name="Layer 2"><g id="Layer_3" data-name="Layer 3"><path class="cls-2" d="M188.92,55.32c.7-.24,23.76-9.41,65.88-7.06s72,13.18,96.7,33.65S375,105.2,375,105.2s18.59,7.06,24.47,13.65,7.77,15.06,3.77,15.29-11.3.94-11.3.94,2.12,13.18,6.36,22.12S402.09,172,402.09,172L316,201.91,201.86,191.79Z" transform="translate(0)"/><path class="cls-3" d="M386.09,131.08s-4.94-4.47-.23-7.53,10.59-2.58,12-1.41,5.88,9.18,5.88,9.18Z" transform="translate(0)"/><path class="cls-3" d="M209.15,184s16.71.95,28.47,0,14.83-.94,17.41-3.29,4-6.59,1.65-7.76-11.53-5.18-11.53-5.18,41.41-.24,46.82-.47,10.12,5.88,17.18,9.65,15.06,11.52,37.65,9.64,36.23-8,42.12-17.41S395.74,152,395.74,152l8.47,17.65s20.47.47,28.71,14.35S435,209.44,424,209.2,191,207.79,192,207.55,209.15,184,209.15,184Z" transform="translate(0)"/><path class="cls-4" d="M255.5,208.73s8.71-3.29,8-16.24-3.05-16-3.05-16l29.88-1.17s5.88,14.35,13.41,19.53S325.62,208,325.62,208Z" transform="translate(0)"/><path class="cls-2" d="M29.86,125c.47.23,18.11-35.77,28.7-47.53s32.71-21.89,39.3-22.83a90.62,90.62,0,0,1,11.53-.94S93.62,8.49,96.45,5s10.58-6.12,22.82.47,48.7,42.11,56,49.41,28.23,59.76,28.47,82.35-17.18,54.59-21.41,60-8.24,11.06-15.77,12S75.5,209.91,56,205,8.21,173.44,4.68,164.73s1.88-20.47,1.88-20.47l10.12-8.94Z" transform="translate(0)"/><path class="cls-5" d="M98.8,7.08C100,7.08,124.21,20,140,31.79s21.42,23.76,24.24,25.88,5.41,2.82,8,2.35,2.35-3.29,2.35-3.29L152.68,31.32,114.09,4.73,99.5,1.2Z" transform="translate(0)"/><path class="cls-6" d="M20.21,140.49S33.86,132,40,123.32s17-30.83,21.89-36.24,6.82-8.7,21.88-17.64S107,59.32,113.62,58.85s11.77-1.18,11.77-1.18-18.59-3.76-27.53-2.12S66.33,67.79,58.56,77.44,37.15,119.32,29.86,125s-14.12,11.29-14.12,11.29Z" transform="translate(0)"/><path class="cls-7" d="M177.86,57.91l9.64-2.36a110.9,110.9,0,0,1,17.65,25.89c7.06,14.82,8.71,23.76,8.71,23.76L200.68,113S190.8,66.85,177.86,57.91Z" transform="translate(0)"/><polygon class="cls-8" points="110.09 52.26 99.97 17.67 123.03 32.97 110.09 52.26"/><path class="cls-9" d="M110.09,52.26a84.2,84.2,0,0,1,3.06-13.18A22.11,22.11,0,0,1,120,29.2L142.8,56.26Z" transform="translate(0)"/><path class="cls-10" d="M36.45,120.73s3.76,12.94,14.35,11.06,28-10.12,43.53-11.06S131,123.32,143.5,140s3.77,35.53.47,43.53-17.17,23.06-17.17,23.06L64,205.67l-21.88-6.12L15.5,182.14,6.09,167.32,3.5,152l1.18-12.7,11.06-3.06L28.68,125Z" transform="translate(0)"/><path class="cls-11" d="M11,153.44c0,.7,13.89,27.53,27.3,29.88s23.76,0,35.53-7.77,34.59-23.06,49.41-29.88,26.12-9.88,35.06-11.29,20-2.59,23.76-7.77,8-13.41,7.77-30.59a77.85,77.85,0,0,0-1.65-16.23s18.35,36.47,15.53,56.7-26.59,73.89-36,73.18-90.12,0-106.82-4S16.21,183.79,9.15,172,3.5,155.08,3.5,155.08Z" transform="translate(0)"/><path class="cls-3" d="M5.62,157.2c.54.52,7.3.94,12.47-7.06a23.22,23.22,0,0,0,3.53-16S10.8,136.49,8,138.61-.73,151.08,5.62,157.2Z" transform="translate(0)"/><path class="cls-4" d="M414.8,173.2a23.28,23.28,0,0,1,8.7,17.41c.24,11.3-3.53,17.65-3.53,17.65s11.53,0,14.36-4.94,2.12-14.83-2.59-20.94S414.8,173.2,414.8,173.2Z" transform="translate(0)"/><path class="cls-5" d="M194.33,62.85S207,55.79,262.56,57s95.53,35.29,95.53,35.29S324,54.14,276.68,49.2,191,56,191,56Z" transform="translate(0)"/></g><g id="Layer_2-2" data-name="Layer 2"><path class="cls-12" d="M188.92,55.32S217.39,92.26,219,133.67s-27.76,73.88-27.76,73.88" transform="translate(0)"/><path class="cls-12" d="M173.62,208s31.53-35.76,30.12-75.76-27.53-74.82-27.53-74.82" transform="translate(0)"/><path class="cls-12" d="M109.15,54.14s-40,1.18-58.44,35.27c-8.32,15.38-12.15,25.91-18.74,33.2S23,133.91,17.62,135.08,7,136,4.21,142.14s0,31.3,15.53,44S54.09,208,88.92,208.49s201.88.24,240.94.24,90.11-.71,97.64-.94,10.57-13.65,5.18-22.82C424,170.14,403,169.44,403,169.44s-5.64-14.83-7.29-21.18-5.65-17.18-5.65-17.18,8.24,3.3,12.24,2.59,1.17-10.35-4.71-16.47-24.94-12.71-24.94-12.71S345.39,60,280.92,51.32s-104.24,6.59-104.24,6.59S146.33,21.44,118.09,7.08C100.63-1.79,95.5,4,96.45,9.44S109.15,54.14,109.15,54.14Z" transform="translate(0)"/><path class="cls-12" d="M98.56,15.32s18.59,10.12,30.36,22.82,18.35,21.18,15.76,20.47-35.06-4.47-34.35-4.23" transform="translate(0)"/><path class="cls-12" d="M56.21,119.32s4-9.41,12.71-12.71S86.8,109.2,86.8,109.2" transform="translate(0)"/><path class="cls-12" d="M12.45,177s6.67,3.6,15.52-.48,11.06-11.76,9.42-20.7" transform="translate(0)"/><path class="cls-12" d="M232.21,168c.71.24,40,5.18,46.59,18.36,8.05,16.09-7.53,22.35-7.53,22.35" transform="translate(0)"/><path class="cls-12" d="M289.15,170.14a39,39,0,0,0,12,21.41c10.35,9.42,24,15.53,35.06,16.47" transform="translate(0)"/><path class="cls-12" d="M402.09,180.49s2.12-4.47.24-13.41" transform="translate(0)"/></g><g id="Layer_4" data-name="Layer 4"><path class="cls-13" d="M247.15,77.91S266.21,98,293,100.49c35.21,3.25,72-13.41,72-13.41s-64.23-29.29-83.29-30S247.15,77.91,247.15,77.91Z" transform="translate(0)"/><path class="cls-7" d="M182.56,56.49S250.87,36.74,277,29.2c39.18-11.29,50.09-17.31,89.3-21.88s76.23.7,76.23.7S396.38,14.56,397,25.67s-1.52,12.5,14.16,10.54S455,30.33,472.62,43.4s35.28,47,51,56.19,30.71,15.68,47,14.38,34.63-5.88,34.63-5.88-34.63,51-68,66-64,21.56-84.95,18.29S384.7,151.87,363.5,136c-23.29-17.41-29.83-24.75-52.7-25.41s-45.36-1-56.71,7.3c-24.47,17.88-34.41,84.23-43.41,90.23-2.12,1.41-34.94,1.06-34.94,1.06s38.23-30,25.88-95.29C198.93,99.69,193,68.26,182.56,56.49Z" transform="translate(0)"/><path class="cls-12" d="M177.39,57.2s69.52-19.65,95.76-26.94c38.12-10.59,53.62-18,92.82-22.59S442.56,8,442.56,8s-31.06,5.3-40.94,14.47c-8.15,7.58-5.05,15.32,10.63,13.36S456,30,473.68,43s35.28,47.05,51,56.2,30.71,15.68,47,14.37,34.64-5.88,34.64-5.88-34.64,51-68,66-64,21.57-84.95,18.3-79.3-46.51-99.56-63.54c-8.83-7.41-13.41-19.52-71.53-17.88-22.87.65-30.59,9.41-36.24,14.59-16.57,15.19-29.59,76.12-38.59,82.12-2.11,1.41-31.76,1.17-31.76,1.17s36.82-32.11,24.47-97.41C197.52,96.87,187.84,69,177.39,57.2Z" transform="translate(0)"/><path class="cls-14" d="M204.33,195.08s-.71-7.41,10.94-9.53,22.23-2.11,25.41-4.23,8.47-6,8.47-6-7.06,15.88-17.29,20.82S209.62,209.2,204.33,195.08Z" transform="translate(0)"/><path class="cls-14" d="M201.28,199.17a16.65,16.65,0,0,1,18.22-2.68c13.77,6,14.54,12.51,18,14.12a32.67,32.67,0,0,0,10.67,2.77s-15.7,7.45-26.69,4.53S196.1,213.33,201.28,199.17Z" transform="translate(0)"/><path class="cls-15" d="M295.52,63.4s12.75-18,31.7-21.23S357.6,38.57,367.08,32s34.54-18.72,34.54-18.72S390,26.79,392.8,34.14,412.21,44,412.21,44s-39.91,6-54.28,8.28S298.14,63.08,295.52,63.4Z" transform="translate(0)"/><path class="cls-15" d="M340.56,105.08c.66,1,93.83,14.42,116.05,12.46s33-5.56,39.53-8.5,8.5-7.84,8.5-7.84,11.43,11.43,32,17,47.7,2.29,46.07,2.61-28,31.67-48.05,44.64c-21.88,14.11-67,19.68-74.47,18.7s-49.47-29.66-58.94-34.23S340.56,105.08,340.56,105.08Z" transform="translate(0)"/><circle class="cls-14" cx="191.56" cy="198.67" r="12.88"/><path class="cls-7" d="M14.69,247.15v13.42H10.06V247.15L0,227.55H5.15l7.22,14.9,7.22-14.9h5.16Z" transform="translate(0)"/><path class="cls-7" d="M28.15,227.55h4.64v33H28.15Zm2.25,0h19V232h-19Zm0,14.42H46.86v4.4H30.4Zm0,14.19h19v4.41h-19Z" transform="translate(0)"/><path class="cls-7" d="M55.94,227.55h4.64v33H55.94Zm2.32,28.61H77.15v4.41H58.26Z" transform="translate(0)"/><path class="cls-7" d="M82.6,227.55h4.63v33H82.6Zm2.32,28.61h18.89v4.41H84.92Z" transform="translate(0)"/><path class="cls-7" d="M114.09,259.4a10.35,10.35,0,0,1-4.07-4.27,13.62,13.62,0,0,1-1.44-6.39v-9.36A13.62,13.62,0,0,1,110,233a10.35,10.35,0,0,1,4.07-4.27,13,13,0,0,1,12.17,0,10.31,10.31,0,0,1,4.08,4.27,13.62,13.62,0,0,1,1.44,6.39v9.36a13.62,13.62,0,0,1-1.44,6.39,10.31,10.31,0,0,1-4.08,4.27,13,13,0,0,1-12.17,0Zm9.69-4a6.13,6.13,0,0,0,2.4-2.61,8.56,8.56,0,0,0,.85-3.91v-9.68a8.53,8.53,0,0,0-.85-3.91,6.13,6.13,0,0,0-2.4-2.61,7.5,7.5,0,0,0-7.2,0,6.16,6.16,0,0,0-2.41,2.61,8.53,8.53,0,0,0-.85,3.91v9.68a8.56,8.56,0,0,0,.85,3.91,6.16,6.16,0,0,0,2.41,2.61,7.5,7.5,0,0,0,7.2,0Z" transform="translate(0)"/><path class="cls-7" d="M152.83,227.55H156l6.76,25.89,5.84-25.89h4.81l-8.06,33h-4.72l-6.09-23.07-6.35,23.07h-4.73l-8.06-33h4.82l5.83,25.89Z" transform="translate(0)"/><path class="cls-3" d="M186.14,227.55h4.61v33h-4.61Zm2.72,28.72h8.95c2.34,0,4.05-.44,5.13-1.34a4.64,4.64,0,0,0,1.61-3.77v-.06a6.59,6.59,0,0,0-.58-2.89,4,4,0,0,0-1.83-1.85,7,7,0,0,0-3.2-.64H188.86v-4.18h10.08a5.49,5.49,0,0,0,3.87-1.21,5.45,5.45,0,0,0-.15-7.26,6.58,6.58,0,0,0-4.35-1.23h-9.45v-4.29h10.29a11.72,11.72,0,0,1,5.35,1.09,7.27,7.27,0,0,1,3.23,3.09,10,10,0,0,1,1.07,4.77,7.79,7.79,0,0,1-.66,3.19,6.57,6.57,0,0,1-2,2.54,7.56,7.56,0,0,1-3.35,1.42,7.3,7.3,0,0,1,3.45,1.42,7.44,7.44,0,0,1,2.23,2.8,8.67,8.67,0,0,1,.77,3.64v.06a9.38,9.38,0,0,1-1.18,4.73,8,8,0,0,1-3.39,3.15,11.27,11.27,0,0,1-5.13,1.12H188.86Z" transform="translate(0)"/><path class="cls-3" d="M216.15,227.53h4.63v33h-4.63Zm2,14.67h11.26a4.28,4.28,0,0,0,2.34-.64,4.15,4.15,0,0,0,1.58-1.8,6.76,6.76,0,0,0,0-5.39,4.19,4.19,0,0,0-1.57-1.8,4.33,4.33,0,0,0-2.35-.64H218.17v-4.4h11.08a10.3,10.3,0,0,1,5,1.18,8.21,8.21,0,0,1,3.36,3.35,11.08,11.08,0,0,1,0,10,8.36,8.36,0,0,1-3.37,3.35,10.28,10.28,0,0,1-5,1.18H218.17Zm9,3.38,4.61-1,8.45,16h-5.49Z" transform="translate(0)"/><path class="cls-3" d="M251.1,260.57h-4.64v-33h4.64Z" transform="translate(0)"/><path class="cls-3" d="M266.65,260.91l-2.6-1.53a10.24,10.24,0,0,1-4-4.31,13.92,13.92,0,0,1-1.43-6.47v-9.06a13.92,13.92,0,0,1,1.43-6.47,10.41,10.41,0,0,1,4-4.33,11.65,11.65,0,0,1,6-1.53,11.34,11.34,0,0,1,5.22,1.22,10.87,10.87,0,0,1,4,3.44,12.87,12.87,0,0,1,2.17,5.15h-4.74a7.45,7.45,0,0,0-1.44-2.76,7.13,7.13,0,0,0-2.38-1.87,6.36,6.36,0,0,0-2.81-.66,6.28,6.28,0,0,0-5.91,3.71,9.41,9.41,0,0,0-.84,4.1v9.06a9.46,9.46,0,0,0,.84,4.09,6.39,6.39,0,0,0,2.36,2.73,6.45,6.45,0,0,0,3.55,1,6.73,6.73,0,0,0,2.82-.62,6.65,6.65,0,0,0,2.37-1.81,7.29,7.29,0,0,0,1.44-2.86h4.74a12.74,12.74,0,0,1-2.18,5.15,11,11,0,0,1-4,3.44,11.31,11.31,0,0,1-5.2,1.22Z" transform="translate(0)"/><path class="cls-3" d="M288,227.55h4.63v33H288Zm3.63,18.53,14.58-18.53h5.69L291,253Zm5.49-3.13,3.66-3.39,12.51,21h-5.68Z" transform="translate(0)"/><path class="cls-3" d="M333.2,260.91l-2.6-1.53a10.24,10.24,0,0,1-4-4.31,13.92,13.92,0,0,1-1.43-6.47v-9.06a13.92,13.92,0,0,1,1.43-6.47,10.41,10.41,0,0,1,4-4.33,11.65,11.65,0,0,1,6-1.53,11.34,11.34,0,0,1,5.22,1.22,10.87,10.87,0,0,1,4,3.44A12.87,12.87,0,0,1,348,237h-4.74a7.32,7.32,0,0,0-1.45-2.76,7,7,0,0,0-2.37-1.87,6.36,6.36,0,0,0-2.81-.66,6.28,6.28,0,0,0-5.91,3.71,9.41,9.41,0,0,0-.84,4.1v9.06a9.46,9.46,0,0,0,.84,4.09,6.39,6.39,0,0,0,2.36,2.73,6.45,6.45,0,0,0,3.55,1,6.73,6.73,0,0,0,2.82-.62,6.53,6.53,0,0,0,2.36-1.81,7.18,7.18,0,0,0,1.45-2.86H348a12.74,12.74,0,0,1-2.18,5.15,11,11,0,0,1-4,3.44,11.31,11.31,0,0,1-5.2,1.22Z" transform="translate(0)"/><path class="cls-3" d="M359.42,259.4a10.35,10.35,0,0,1-4.07-4.27,13.62,13.62,0,0,1-1.44-6.39v-9.36a13.62,13.62,0,0,1,1.44-6.39,10.35,10.35,0,0,1,4.07-4.27,13,13,0,0,1,12.17,0,10.31,10.31,0,0,1,4.08,4.27,13.62,13.62,0,0,1,1.44,6.39v9.36a13.62,13.62,0,0,1-1.44,6.39,10.31,10.31,0,0,1-4.08,4.27,13,13,0,0,1-12.17,0Zm9.69-4a6.13,6.13,0,0,0,2.4-2.61,8.56,8.56,0,0,0,.85-3.91v-9.68a8.53,8.53,0,0,0-.85-3.91,6.13,6.13,0,0,0-2.4-2.61,7.5,7.5,0,0,0-7.2,0,6.16,6.16,0,0,0-2.41,2.61,8.53,8.53,0,0,0-.85,3.91v9.68a8.56,8.56,0,0,0,.85,3.91,6.16,6.16,0,0,0,2.41,2.61,7.5,7.5,0,0,0,7.2,0Z" transform="translate(0)"/><path class="cls-3" d="M384.6,227.55h4.63v33H384.6Zm3.14,28.61h7.47a7.91,7.91,0,0,0,5.66-1.9,7,7,0,0,0,2-5.34V239.2a7,7,0,0,0-2-5.35,8,8,0,0,0-5.66-1.89h-7.47v-4.41h7.33a15.17,15.17,0,0,1,6.79,1.39,9.65,9.65,0,0,1,4.29,4,13,13,0,0,1,1.47,6.4v9.36a13,13,0,0,1-1.47,6.4,9.62,9.62,0,0,1-4.3,4,15.41,15.41,0,0,1-6.8,1.39h-7.31Z" transform="translate(0)"/><path class="cls-3" d="M415.12,227.55h4.63v33h-4.63Zm2.25,0h18.95V232H417.37Zm0,14.42h16.46v4.4H417.37Zm0,14.19h18.95v4.41H417.37Z" transform="translate(0)"/><path class="cls-15" d="M183,204.88A10.25,10.25,0,0,1,187,195a17.56,17.56,0,0,1,11.83-3.61s-7.94-6.53-14.74-.27A9.72,9.72,0,0,0,183,204.88Z" transform="translate(0)"/><path class="cls-15" d="M207,192.88s.18-2.83,6.27-4.06,19.94-.18,20.21-.27-8,8.12-8,8.12a26.58,26.58,0,0,0-9.09-3.62C211.3,192.17,208.3,192,207,192.88Z" transform="translate(0)"/></g></g></g></svg>