<svg xmlns="http://www.w3.org/2000/svg" viewBox="0 0 608.09 260.91"><defs><style>.cls-1{isolation:isolate;}.cls-15,.cls-2{fill:#f8b500;}.cls-3{fill:#141414;}.cls-4{fill:#2b2b2b;}.cls-5{fill:#dfdbc4;}.cls-6{fill:#ccc;}.cls-7{fill:#e5e5e5;opacity:0.61;mix-blend-mode:screen;}.cls-17,.cls-8{fill:#f7c800;}.cls-9{fill:#fd9795;}.cls-10{fill:#de6b5e;}.cls-11{fill:#faf8f1;}.cls-12{fill:#282828;opacity:0.28;mix-blend-mode:multiply;}.cls-13{fill:none;}.cls-13,.cls-15,.cls-17{stroke:#0c0c0c;stroke-linecap:round;stroke-linejoin:round;stroke-width:5px;}.cls-14{fill:#c19c00;}.cls-16{fill:#e8a600;}</style></defs><title>Toto_sleep_newcape</title><g class="cls-1"><g id="Layer_2" data-name="Layer 2"><g id="Layer_4" data-name="Layer 4"><path class="cls-2" d="M98.64,247.15v13.41H94V247.15L84,227.55h5.16l7.22,14.9,7.22-14.9h5.15Z"/><path class="cls-2" d="M112.11,227.55h4.63v33h-4.63Zm2.25,0h19V232h-19Zm0,14.42h16.46v4.4H114.36Zm0,14.19h19v4.4h-19Z"/><path class="cls-2" d="M139.9,227.55h4.63v33H139.9Zm2.32,28.61h18.89v4.4H142.22Z"/><path class="cls-2" d="M166.56,227.55h4.63v33h-4.63Zm2.31,28.61h18.89v4.4H168.87Z"/><path class="cls-2" d="M198.05,259.4a10.31,10.31,0,0,1-4.08-4.27,13.62,13.62,0,0,1-1.44-6.39v-9.36A13.62,13.62,0,0,1,194,233a10.31,10.31,0,0,1,4.08-4.27,13,13,0,0,1,12.17,0,10.35,10.35,0,0,1,4.07,4.27,13.62,13.62,0,0,1,1.44,6.39v9.36a13.62,13.62,0,0,1-1.44,6.39,10.35,10.35,0,0,1-4.07,4.27,13,13,0,0,1-12.17,0Zm9.68-4a6.16,6.16,0,0,0,2.41-2.61,8.57,8.57,0,0,0,.85-3.92v-9.67a8.53,8.53,0,0,0-.85-3.91,6.24,6.24,0,0,0-2.41-2.62,7.5,7.5,0,0,0-7.2,0,6.22,6.22,0,0,0-2.4,2.62,8.53,8.53,0,0,0-.85,3.91v9.67a8.57,8.57,0,0,0,.85,3.92,6.13,6.13,0,0,0,2.4,2.61,7.5,7.5,0,0,0,7.2,0Z"/><path class="cls-2" d="M236.78,227.55H240l6.77,25.89,5.83-25.89h4.82l-8.06,33h-4.73l-6.08-23.06-6.36,23.06h-4.72l-8.06-33h4.81L230,253.44Z"/><path class="cls-3" d="M270.09,227.55h4.61v33h-4.61Zm2.73,28.72h8.94c2.35,0,4.06-.44,5.13-1.34a4.61,4.61,0,0,0,1.61-3.77v-.06a6.74,6.74,0,0,0-.57-2.89,4,4,0,0,0-1.83-1.85,7,7,0,0,0-3.2-.64H272.82v-4.18H282.9a5.49,5.49,0,0,0,3.87-1.21,5.48,5.48,0,0,0-.15-7.26,6.61,6.61,0,0,0-4.36-1.23h-9.44v-4.29H283.1a11.79,11.79,0,0,1,5.36,1.09,7.25,7.25,0,0,1,3.22,3.09,9.88,9.88,0,0,1,1.07,4.77,7.79,7.79,0,0,1-.66,3.19,6.57,6.57,0,0,1-2,2.54,7.56,7.56,0,0,1-3.35,1.42,7.26,7.26,0,0,1,3.45,1.42,7.35,7.35,0,0,1,2.23,2.8,8.67,8.67,0,0,1,.77,3.64v.06A9.28,9.28,0,0,1,292,256.3a7.93,7.93,0,0,1-3.38,3.15,11.27,11.27,0,0,1-5.13,1.11H272.82Z"/><path class="cls-3" d="M300.11,227.53h4.63v33h-4.63Zm2,14.67h11.26a4.37,4.37,0,0,0,2.34-.64,4.15,4.15,0,0,0,1.58-1.8,6.88,6.88,0,0,0,0-5.39,4.25,4.25,0,0,0-1.57-1.8,4.35,4.35,0,0,0-2.35-.64H302.13v-4.4h11.08a10.35,10.35,0,0,1,5,1.18,8.34,8.34,0,0,1,3.36,3.35,11.08,11.08,0,0,1,0,10,8.38,8.38,0,0,1-3.38,3.35,10.24,10.24,0,0,1-5,1.18H302.13Zm9,3.38,4.61-1,8.44,16h-5.49Z"/><path class="cls-3" d="M335.05,260.56h-4.63v-33h4.63Z"/><path class="cls-3" d="M350.6,260.91l-2.6-1.53a10.37,10.37,0,0,1-4-4.31,14,14,0,0,1-1.43-6.47v-9.06a14,14,0,0,1,1.43-6.47,10.54,10.54,0,0,1,4-4.33,11.7,11.7,0,0,1,6-1.53,11.34,11.34,0,0,1,5.22,1.22,11,11,0,0,1,4,3.44,12.87,12.87,0,0,1,2.17,5.15h-4.75a7.45,7.45,0,0,0-1.44-2.76,7,7,0,0,0-2.37-1.87,6.64,6.64,0,0,0-6.36.32,6.5,6.5,0,0,0-2.36,2.73,9.41,9.41,0,0,0-.84,4.1v9.06a9.46,9.46,0,0,0,.84,4.09,6.25,6.25,0,0,0,5.9,3.7,6.74,6.74,0,0,0,2.83-.62,6.53,6.53,0,0,0,2.36-1.81,7.29,7.29,0,0,0,1.44-2.86h4.75a12.88,12.88,0,0,1-2.18,5.15,11.17,11.17,0,0,1-9.2,4.66Z"/><path class="cls-3" d="M372,227.55h4.63v33H372Zm3.63,18.53,14.58-18.53h5.7l-21,25.48Zm5.5-3.13,3.65-3.39,12.52,21h-5.68Z"/><path class="cls-3" d="M417.15,260.91l-2.6-1.53a10.37,10.37,0,0,1-4-4.31,14,14,0,0,1-1.43-6.47v-9.06a14,14,0,0,1,1.43-6.47,10.54,10.54,0,0,1,4-4.33,11.7,11.7,0,0,1,6-1.53,11.34,11.34,0,0,1,5.22,1.22,11,11,0,0,1,4,3.44A12.87,12.87,0,0,1,432,237h-4.75a7.45,7.45,0,0,0-1.44-2.76,7,7,0,0,0-2.37-1.87,6.39,6.39,0,0,0-8.72,3.05,9.41,9.41,0,0,0-.84,4.1v9.06a9.46,9.46,0,0,0,.84,4.09,6.32,6.32,0,0,0,2.36,2.73,6.39,6.39,0,0,0,3.54,1,6.78,6.78,0,0,0,2.83-.62,6.53,6.53,0,0,0,2.36-1.81,7.29,7.29,0,0,0,1.44-2.86H432a12.88,12.88,0,0,1-2.18,5.15,11.17,11.17,0,0,1-9.2,4.66Z"/><path class="cls-3" d="M443.38,259.4a10.31,10.31,0,0,1-4.08-4.27,13.62,13.62,0,0,1-1.44-6.39v-9.36A13.62,13.62,0,0,1,439.3,233a10.31,10.31,0,0,1,4.08-4.27,13,13,0,0,1,12.17,0,10.35,10.35,0,0,1,4.07,4.27,13.62,13.62,0,0,1,1.44,6.39v9.36a13.62,13.62,0,0,1-1.44,6.39,10.35,10.35,0,0,1-4.07,4.27,13,13,0,0,1-12.17,0Zm9.68-4a6.16,6.16,0,0,0,2.41-2.61,8.57,8.57,0,0,0,.85-3.92v-9.67a8.53,8.53,0,0,0-.85-3.91,6.24,6.24,0,0,0-2.41-2.62,7.5,7.5,0,0,0-7.2,0,6.22,6.22,0,0,0-2.4,2.62,8.53,8.53,0,0,0-.85,3.91v9.67a8.57,8.57,0,0,0,.85,3.92,6.13,6.13,0,0,0,2.4,2.61,7.5,7.5,0,0,0,7.2,0Z"/><path class="cls-3" d="M468.56,227.55h4.63v33h-4.63Zm3.13,28.61h7.47a7.92,7.92,0,0,0,5.67-1.9,7,7,0,0,0,2-5.34V239.2a7,7,0,0,0-2-5.35,8,8,0,0,0-5.67-1.89h-7.47v-4.41H479a15.14,15.14,0,0,1,6.79,1.39,9.6,9.6,0,0,1,4.29,4,12.91,12.91,0,0,1,1.48,6.4v9.36a12.94,12.94,0,0,1-1.48,6.4,9.57,9.57,0,0,1-4.3,4,15.36,15.36,0,0,1-6.8,1.38h-7.31Z"/><path class="cls-3" d="M499.07,227.55h4.63v33h-4.63Zm2.25,0h19V232h-19Zm0,14.42h16.46v4.4H501.32Zm0,14.19h19v4.4h-19Z"/><path class="cls-4" d="M188.17,55.32c.71-.24,23.77-9.41,65.89-7.06s72,13.18,96.7,33.65,23.53,23.29,23.53,23.29,18.59,7.06,24.47,13.65,7.77,15.06,3.77,15.29-11.3.94-11.3.94,2.12,13.18,6.36,22.12S401.35,172,401.35,172l-86.12,29.89L201.12,191.79Z"/><path class="cls-3" d="M385.35,131.08s-4.94-4.47-.23-7.53,10.58-2.58,12-1.41,5.88,9.18,5.88,9.18Z"/><path class="cls-3" d="M208.41,184s16.71.95,28.47,0,14.82-.94,17.41-3.29,4-6.59,1.65-7.76-11.53-5.18-11.53-5.18,41.41-.24,46.82-.47,10.12,5.88,17.18,9.65,15.06,11.52,37.65,9.64,36.23-8,42.11-17.41S395,152,395,152l8.47,17.65s20.47.47,28.7,14.35,2.12,25.42-8.94,25.18-232.94-1.41-232-1.65S208.41,184,208.41,184Z"/><path class="cls-5" d="M254.76,208.73s8.71-3.29,8-16.24-3.06-16-3.06-16l29.89-1.17s5.88,14.35,13.41,19.53S324.88,208,324.88,208Z"/><path class="cls-4" d="M29.12,125c.47.23,18.11-35.77,28.7-47.53s32.71-21.89,39.3-22.83a90.41,90.41,0,0,1,11.52-.94S92.88,8.49,95.7,5s10.59-6.12,22.83.47,48.7,42.11,56,49.41S202.76,114.61,203,137.2s-17.18,54.59-21.41,60-8.24,11.06-15.77,12-91.06.71-110.59-4.23S7.47,173.44,3.94,164.73s1.88-20.47,1.88-20.47l10.12-8.94Z"/><path class="cls-6" d="M98.06,7.08c1.17,0,25.41,12.94,41.17,24.71s21.41,23.76,24.24,25.88,5.41,2.82,8,2.35,2.35-3.29,2.35-3.29L151.94,31.32,113.35,4.73,98.76,1.2Z"/><path class="cls-7" d="M19.47,140.49S33.12,132,39.23,123.32,56.17,92.49,61.12,87.08,67.94,78.38,83,69.44s23.29-10.12,29.88-10.59,11.76-1.18,11.76-1.18-18.58-3.76-27.52-2.12S65.59,67.79,57.82,77.44,36.41,119.32,29.12,125,15,136.26,15,136.26Z"/><path class="cls-8" d="M177.12,57.91l9.64-2.36a110.9,110.9,0,0,1,17.65,25.89c7.06,14.82,8.71,23.76,8.71,23.76L199.94,113S190.06,66.85,177.12,57.91Z"/><polygon class="cls-9" points="109.35 52.26 99.23 17.67 122.29 32.97 109.35 52.26"/><path class="cls-10" d="M109.35,52.26a84.2,84.2,0,0,1,3.06-13.18,22.11,22.11,0,0,1,6.82-9.88l22.83,27.06Z"/><path class="cls-11" d="M35.7,120.73s3.77,12.94,14.36,11.06,28-10.12,43.53-11.06,36.7,2.59,49.17,19.29,3.77,35.53.47,43.53-17.17,23.06-17.17,23.06l-62.83-.94-21.88-6.12L14.76,182.14,5.35,167.32,2.76,152l1.18-12.7L15,136.26,27.94,125Z"/><path class="cls-12" d="M10.29,153.44c0,.7,13.88,27.53,27.3,29.88s23.76,0,35.53-7.77,34.58-23.06,49.41-29.88,26.11-9.88,35.06-11.29,20-2.59,23.76-7.77,8-13.41,7.77-30.59a77.85,77.85,0,0,0-1.65-16.23s18.35,36.47,15.53,56.7-26.59,73.89-36,73.18-90.12,0-106.83-4S15.47,183.79,8.41,172s-5.65-16.94-5.65-16.94Z"/><path class="cls-3" d="M4.88,157.2c.54.52,7.29.94,12.47-7.06a23.22,23.22,0,0,0,3.53-16s-10.82,2.35-13.65,4.47S-1.47,151.08,4.88,157.2Z"/><path class="cls-5" d="M414.06,173.2a23.28,23.28,0,0,1,8.7,17.41c.24,11.3-3.53,17.65-3.53,17.65s11.53,0,14.36-4.94,2.11-14.83-2.59-20.94S414.06,173.2,414.06,173.2Z"/><path class="cls-6" d="M193.59,62.85s12.7-7.06,68.23-5.88,95.53,35.29,95.53,35.29S323.23,54.14,275.94,49.2,190.29,56,190.29,56Z"/><path class="cls-13" d="M188.17,55.32s28.47,36.94,30.12,78.35-27.76,73.88-27.76,73.88"/><path class="cls-13" d="M172.88,208s31.53-35.76,30.12-75.76-27.53-74.82-27.53-74.82"/><path class="cls-13" d="M108.41,54.14S68.41,55.32,50,89.41c-8.33,15.38-12.15,25.91-18.74,33.2s-8.94,11.3-14.35,12.47S6.29,136,3.47,142.14s0,31.3,15.53,44S53.35,208,88.17,208.49s201.89.24,241,.24,90.11-.71,97.64-.94,10.57-13.65,5.18-22.82c-8.71-14.83-29.65-15.53-29.65-15.53s-5.65-14.83-7.29-21.18-5.65-17.18-5.65-17.18,8.24,3.3,12.24,2.59,1.17-10.35-4.71-16.47-24.94-12.71-24.94-12.71S344.64,60,280.17,51.32s-104.23,6.59-104.23,6.59S145.59,21.44,117.35,7.08C99.89-1.79,94.76,4,95.7,9.44S108.41,54.14,108.41,54.14Z"/><path class="cls-13" d="M97.82,15.32s18.59,10.12,30.35,22.82,18.36,21.18,15.77,20.47-35.06-4.47-34.35-4.23"/><path class="cls-13" d="M55.47,119.32s4-9.41,12.7-12.71,17.89,2.59,17.89,2.59"/><path class="cls-13" d="M11.7,177s6.67,3.6,15.53-.48c8.71-4,11.06-11.76,9.41-20.7"/><path class="cls-13" d="M231.47,168c.7.24,40,5.18,46.59,18.36,8,16.09-7.53,22.35-7.53,22.35"/><path class="cls-13" d="M288.41,170.14a39,39,0,0,0,12,21.41c10.35,9.42,24,15.53,35.06,16.47"/><path class="cls-13" d="M401.35,180.49s2.12-4.47.24-13.41"/><path class="cls-14" d="M246.41,77.91S265.47,98,292.29,100.49c35.21,3.25,72-13.41,72-13.41s-64.23-29.29-83.29-30S246.41,77.91,246.41,77.91Z"/><path class="cls-2" d="M181.82,56.49s68.3-19.75,94.47-27.29c39.18-11.29,50.09-17.31,89.3-21.88s76.23.7,76.23.7-46.18,6.54-45.53,17.65-1.52,12.5,14.16,10.54,43.78-5.88,61.43,7.19,35.28,47,51,56.19,30.71,15.68,47,14.38,34.64-5.88,34.64-5.88-34.64,51-68,66-64,21.56-85,18.29S384,151.87,362.76,136c-23.29-17.41-29.83-24.75-52.7-25.41s-45.36-1-56.71,7.3c-24.47,17.88-34.41,84.23-43.41,90.23-2.12,1.41-34.94,1.06-34.94,1.06s38.23-30,25.88-95.29C198.19,99.69,192.28,68.26,181.82,56.49Z"/><path class="cls-13" d="M176.64,57.2s69.53-19.65,95.77-26.94c38.12-10.59,53.62-18,92.82-22.59S441.82,8,441.82,8s-31.06,5.3-40.94,14.47c-8.15,7.58-5.05,15.32,10.63,13.36S455.29,30,472.94,43s35.28,47.05,51,56.2,30.72,15.68,47.05,14.37,34.64-5.88,34.64-5.88-34.64,51-68,66-64,21.57-84.95,18.3-79.3-46.51-99.56-63.54c-8.83-7.41-13.42-19.52-71.53-17.88-22.87.65-30.59,9.41-36.24,14.59-16.57,15.19-29.59,76.12-38.59,82.12-2.12,1.41-31.76,1.17-31.76,1.17s36.82-32.11,24.47-97.41C196.78,96.87,187.1,69,176.64,57.2Z"/><path class="cls-15" d="M203.59,195.08s-.71-7.41,10.94-9.53,22.23-2.11,25.41-4.23,8.47-6,8.47-6-7.06,15.88-17.29,20.82S208.88,209.2,203.59,195.08Z"/><path class="cls-15" d="M200.54,199.17a16.65,16.65,0,0,1,18.22-2.68c13.77,6,14.54,12.51,18,14.12a32.64,32.64,0,0,0,10.66,2.77s-15.7,7.45-26.68,4.53S195.36,213.33,200.54,199.17Z"/><path class="cls-16" d="M294.78,63.4s12.74-18,31.69-21.23,30.39-3.6,39.86-10.13,34.55-18.72,34.55-18.72-11.62,13.47-8.82,20.82S411.47,44,411.47,44s-39.91,6-54.28,8.28S297.4,63.08,294.78,63.4Z"/><path class="cls-16" d="M339.82,105.08c.65,1,93.83,14.42,116.05,12.46s33-5.56,39.53-8.5,8.5-7.84,8.5-7.84,11.43,11.43,32,17,47.71,2.29,46.07,2.61-28,31.67-48,44.64c-21.88,14.11-67,19.68-74.47,18.7S410,154.48,400.53,149.91,339.82,105.08,339.82,105.08Z"/><circle class="cls-17" cx="190.82" cy="198.67" r="12.88"/><path class="cls-16" d="M182.23,204.88a10.25,10.25,0,0,1,4.06-9.89,17.55,17.55,0,0,1,11.83-3.61s-8-6.53-14.74-.27A9.72,9.72,0,0,0,182.23,204.88Z"/><path class="cls-16" d="M206.23,192.88s.18-2.83,6.27-4.06,19.94-.18,20.2-.27-8,8.12-8,8.12a26.47,26.47,0,0,0-9.08-3.62C210.56,192.17,207.56,192,206.23,192.88Z"/></g></g></g></svg>